<svg width="45" height="34" viewBox="0 0 45 34" fill="none" xmlns="http://www.w3.org/2000/svg">
<path d="M43.2014 28.9392C42.3788 30.7884 40.2567 32.4633 38.2641 32.8331C38.0602 32.8711 33.1903 33.75 22.5127 33.75H22.4845C11.8083 33.75 6.93422 32.8711 6.73172 32.8345C4.73906 32.4633 2.61562 30.7884 1.79156 28.9378C1.71844 28.7733 0 24.8161 0 16.875C0 8.93391 1.71844 4.97531 1.79156 4.81078C2.61562 2.96016 4.73906 1.28672 6.73172 0.916875C6.93422 0.878906 11.8083 0 22.4845 0C33.1903 0 38.0602 0.878906 38.2627 0.915469C40.2567 1.28672 42.3788 2.96016 43.2028 4.80938C43.2759 4.97531 44.9986 8.93391 44.9986 16.875C44.9986 24.8161 43.2759 28.7733 43.2014 28.9392ZM40.6294 5.94844C40.1906 4.96266 38.8153 3.87984 37.7494 3.68156C37.7044 3.67313 32.8852 2.8125 22.5127 2.8125C12.1134 2.8125 7.29 3.67313 7.24359 3.68156C6.17766 3.87984 4.80375 4.96266 4.36359 5.95406C4.34953 5.98359 2.81391 9.60328 2.81391 16.875C2.81391 24.1453 4.34953 27.765 4.36641 27.8016C4.80375 28.7873 6.17766 29.8702 7.245 30.0684C7.29 30.0769 12.1134 30.9375 22.4845 30.9375H22.5127C32.8852 30.9375 37.7044 30.0769 37.7508 30.0684C38.8167 29.8702 40.1906 28.7873 40.6308 27.7959C40.6448 27.765 42.1833 24.1453 42.1833 16.875C42.1833 9.60469 40.6448 5.98359 40.6294 5.94844ZM19.0406 25.0959C18.8128 25.2408 18.5512 25.3125 18.2911 25.3125C18.0577 25.3125 17.8242 25.2548 17.6119 25.1367C17.1633 24.8892 16.8848 24.4181 16.8848 23.9062V9.84375C16.8848 9.33328 17.1605 8.86359 17.6062 8.61609C18.052 8.36719 18.5991 8.37844 19.0308 8.64703L30.3075 15.6164C30.7195 15.8709 30.9727 16.3209 30.9741 16.8061C30.9755 17.2913 30.728 17.7441 30.3173 18.0014L19.0406 25.0959ZM19.6987 12.3666V21.3595L26.91 16.823L19.6987 12.3666Z" fill="#FAF77D"/>
</svg>
