<svg width="41" height="38" viewBox="0 0 41 38" fill="none" xmlns="http://www.w3.org/2000/svg">
<path fill-rule="evenodd" clip-rule="evenodd" d="M1.75714 0C0.7867 0 0 0.689723 0 1.54054V26.1892C0 27.04 0.7867 27.7297 1.75714 27.7297H7.02857V36.4594C7.02857 37.0825 7.45669 37.6442 8.11328 37.8827C8.76988 38.1211 9.52566 37.9893 10.0282 37.5487L21.2278 27.7297H39.2429C40.2133 27.7297 41 27.04 41 26.1892V1.54054C41 0.689723 40.2133 0 39.2429 0H1.75714ZM3.51429 24.6486V3.08108H37.4857V24.6486H20.5C20.034 24.6486 19.587 24.8109 19.2575 25.0998L10.5429 32.7402V26.1892C10.5429 25.3383 9.75616 24.6486 8.78571 24.6486H3.51429ZM10.75 16.7525V12.4331L12.3788 13.7501C14.5008 15.4659 17.2699 16.79 21.1482 16.79C25.0033 16.79 27.7253 15.4903 29.844 13.7542L31.4778 12.4155V16.7418L31.1386 17.0405C29.1094 18.8266 25.9399 20.6788 21.1236 20.6788C16.3278 20.6788 13.1871 18.8227 11.1026 17.052L10.75 16.7525ZM17.0332 9C16.8976 9 16.8034 9.04878 16.7402 9.1143C16.6767 9.18022 16.6093 9.30125 16.6093 9.50155V9.52746C16.6093 9.78589 16.6895 9.91587 16.7447 9.97387C16.7971 10.029 16.8808 10.0773 17.018 10.0807C17.2021 10.0713 17.3035 10.0078 17.3576 9.95173C17.4124 9.89501 17.4828 9.77974 17.4828 9.55484C17.4828 9.32206 17.4084 9.18645 17.3448 9.11813C17.2858 9.05482 17.1926 9 17.0332 9ZM14.6093 9.50155C14.6093 8.10335 15.6436 7 17.0332 7C17.7238 7 18.3553 7.26839 18.8087 7.75539C19.2574 8.23739 19.4828 8.87919 19.4828 9.55484C19.4828 10.234 19.2533 10.8681 18.7958 11.3415C18.3393 11.8139 17.7205 12.0593 17.0654 12.0803L17.0493 12.0809H17.0332C16.3766 12.0809 15.7526 11.8327 15.2957 11.3525C14.8396 10.8731 14.6093 10.2264 14.6093 9.52746V9.50155ZM25.1461 9C25.0098 9 24.9157 9.04894 24.8529 9.11412C24.7897 9.1798 24.7222 9.30078 24.7222 9.50155V9.52746C24.7222 9.78635 24.8024 9.91627 24.8574 9.97405C24.9095 10.0289 24.993 10.0773 25.1309 10.0807C25.3183 10.0711 25.4286 10.0058 25.4891 9.94442C25.5485 9.88419 25.6175 9.77005 25.6175 9.55484C25.6175 9.14988 25.3976 9 25.1461 9ZM22.7222 9.50155C22.7222 8.10383 23.755 7 25.1461 7C26.5973 7 27.6175 8.14295 27.6175 9.55484C27.6175 10.2437 27.3765 10.8789 26.9131 11.3488C26.4525 11.8158 25.8319 12.0593 25.1783 12.0803L25.1622 12.0809H25.1461C24.4893 12.0809 23.865 11.8328 23.4081 11.3523C22.952 10.8727 22.7222 10.2259 22.7222 9.52746V9.50155Z" fill="#002F3C"/>
</svg>
