<svg width="42" height="38" viewBox="0 0 42 38" fill="none" xmlns="http://www.w3.org/2000/svg">
<path d="M39.982 0.890613C39.4467 0.445256 38.8006 0.153375 38.1126 0.0460325C37.4246 -0.0613095 36.7203 0.019904 36.0747 0.281031L2.3797 13.885C1.65911 14.1815 1.04573 14.6901 0.620957 15.3433C0.196187 15.9966 -0.0198786 16.7635 0.00143829 17.5424C0.0227552 18.3213 0.280446 19.0753 0.740309 19.7044C1.20017 20.3334 1.84046 20.8077 2.57618 21.0643L9.39194 23.4348L13.1909 35.9976C13.2425 36.1655 13.3174 36.3252 13.4135 36.4722C13.428 36.4947 13.4486 36.5115 13.4641 36.5335C13.575 36.6883 13.7091 36.8251 13.8616 36.9391C13.905 36.9722 13.9465 37.0032 13.9929 37.0325C14.1714 37.151 14.3691 37.2375 14.5771 37.2885L14.5994 37.2903L14.612 37.2957C14.7371 37.3212 14.8644 37.3341 14.9921 37.3343C15.0044 37.3343 15.0153 37.3284 15.0274 37.3282C15.2201 37.3248 15.4111 37.2917 15.5936 37.2299C15.636 37.2154 15.6724 37.1912 15.7136 37.1737C15.8497 37.1174 15.9786 37.0451 16.0977 36.9584C16.1931 36.878 16.2885 36.7976 16.3839 36.7173L21.4645 31.108L29.0423 36.9781C29.7094 37.4975 30.5305 37.7798 31.376 37.7805C32.2619 37.7794 33.1205 37.4737 33.8079 36.9147C34.4952 36.3558 34.9695 35.5775 35.1512 34.7104L41.2857 4.59596C41.4247 3.91818 41.3768 3.21535 41.1472 2.56268C40.9176 1.91 40.5148 1.33204 39.982 0.890613ZM15.7376 24.0333C15.4769 24.293 15.2987 24.6239 15.2254 24.9845L14.6434 27.8123L13.1692 22.9368L20.8127 18.9565L15.7376 24.0333ZM31.3467 34.0054L22.3918 27.0684C22.0172 26.7789 21.5472 26.6412 21.0756 26.6827C20.6039 26.7242 20.1652 26.9419 19.8469 27.2924L18.2198 29.0884L18.7948 26.2936L32.1123 12.976C32.4302 12.6586 32.6239 12.2378 32.6583 11.7899C32.6926 11.3419 32.5655 10.8965 32.2998 10.5343C32.0341 10.172 31.6474 9.91688 31.2099 9.81511C30.7723 9.71334 30.3128 9.77164 29.9145 9.97947L10.8016 19.9307L3.79905 17.3682L37.6024 3.84493L31.3467 34.0054Z" fill="#002F3C"/>
</svg>
