<svg width="50" height="36" viewBox="0 0 50 36" fill="none" xmlns="http://www.w3.org/2000/svg">
<path fill-rule="evenodd" clip-rule="evenodd" d="M22.4163 11.174C22.4163 17.3352 17.5205 22.3489 11.5022 22.3489C5.48474 22.3489 0.588947 17.3361 0.588867 11.1739C0.588867 5.01274 5.48466 0 11.5021 0C15.1671 0 18.4081 1.8655 20.3879 4.71095H28.647C30.6269 1.86558 33.868 0 37.5329 0C43.5503 0 48.4468 5.01282 48.4468 11.174C48.4468 17.3352 43.551 22.3489 37.5327 22.3489C31.5153 22.3489 26.6195 17.3352 26.6195 11.174C26.6195 10.4817 26.6897 9.8063 26.8085 9.14774H22.2273C22.3461 9.8063 22.4163 10.4817 22.4163 11.174ZM44.1138 11.1739C44.1138 7.45968 41.1622 4.43762 37.5338 4.43762C33.9052 4.43762 30.9537 7.45976 30.9546 11.1739C30.9546 14.8891 33.9053 17.9112 37.5338 17.9112C41.1622 17.9103 44.1138 14.8882 44.1138 11.1739ZM18.0822 11.1739C18.0822 7.45968 15.1298 4.43762 11.5022 4.43762C7.87363 4.43762 4.92303 7.45976 4.92303 11.1739C4.92303 14.8891 7.87371 17.9112 11.5022 17.9112C15.1307 17.9103 18.0822 14.8882 18.0822 11.1739ZM46.1629 28.6139C47.2889 28.3086 48.4063 28.7878 48.8466 29.8014C48.9558 30.0525 49.0164 30.3179 49.0285 30.5824C49.0345 30.6863 49.0337 30.7909 49.025 30.8966C49.0138 31.0306 48.9895 31.1629 48.9539 31.2907C48.8656 31.62 48.3472 32.3459 47.9042 32.6513C45.0212 34.6384 41.8954 35.6369 38.9604 35.8481C38.2444 35.9484 37.4833 35.9999 36.6962 35.9999C32.8303 35.9999 28.1139 34.681 26.3681 33.142C25.6461 32.6121 25.0245 31.9838 24.5157 31.2995C24.0069 31.9846 23.3854 32.613 22.6633 33.142C20.9176 34.6819 16.2012 35.9999 12.3351 35.9999C11.5489 35.9999 10.787 35.9485 10.071 35.8481C7.13587 35.6369 4.01013 34.6393 1.127 32.6513C0.684102 32.3459 0.165736 31.62 0.0772858 31.2907C0.0426747 31.1629 0.0183988 31.0306 0.00710216 30.8966C-0.000669321 30.791 -0.00243192 30.6863 0.00365707 30.5824C0.0175175 30.3179 0.0782472 30.0526 0.187449 29.8014C0.62866 28.7887 1.74599 28.3095 2.87117 28.6139C3.18147 28.6982 4.24945 28.8384 5.63982 28.8384C9.50233 28.8384 16.5002 24.3289 16.5401 24.2996C19.8809 21.8544 24.4776 23.7538 24.5166 23.7866H24.5175C24.5565 23.7538 29.1533 21.8545 32.494 24.2996C32.5339 24.328 39.5317 28.8384 43.3942 28.8384C44.7846 28.8384 45.8535 28.6982 46.1629 28.6139Z" fill="#002F3C"/>
</svg>
