<svg width="168" height="214" viewBox="0 0 168 214" fill="none" xmlns="http://www.w3.org/2000/svg">
<path d="M65.9098 88.627C67.3943 88.141 68.0604 87.0069 68.7265 85.8727C71.6495 80.6856 74.5355 75.5914 77.4585 70.4042C82.842 60.9223 87.7419 51.0329 93.9249 41.9763C97.5532 36.6391 101.702 31.6165 106.93 27.6686C109.415 25.7507 112.234 24.0734 115.201 22.563C116.667 21.8542 118.43 21.4791 120.027 21.2529C124.742 20.76 127.905 23.6316 128.082 28.3293C128.238 31.7272 127.354 35.0345 126.321 38.1749C124.107 44.8275 121.093 51.0548 117.708 57.1342C115.025 61.9866 112.492 67.0057 110.052 72.0619C107.001 78.382 104.043 84.7391 101.049 91.1891C99.7917 93.8101 98.8134 96.5419 98.7452 99.4203C98.6736 100.683 98.4912 102.225 99.7183 102.928C100.889 103.501 101.964 102.422 102.891 101.714C106.413 98.8098 109.842 95.8685 113.457 93.0011C116.108 90.9342 118.759 88.8674 121.615 87.0972C123.915 85.6439 126.475 84.6171 128.943 83.5534C130.334 83.0305 131.838 82.7673 133.361 82.7269C137.65 82.495 140.496 84.8101 141.433 88.9491C142.52 93.7935 141.323 98.1599 138.843 102.232C134.92 108.851 129.713 114.099 123.39 118.365C118.977 121.345 114.21 123.862 109.107 125.6C107.882 125.974 106.713 126.478 105.452 126.945C96.8971 129.786 89.5541 134.722 82.6208 140.252C78.839 143.268 76.4893 147.284 74.1025 151.393C70.7172 157.473 68.6698 163.976 66.1209 170.388C64.163 175.313 62.298 180.276 60.377 185.108C59.6382 186.966 58.6206 188.714 57.6399 190.369C56.7701 191.745 55.4166 192.713 53.7272 192.902C49.2903 193.506 45.074 193.014 41.4654 190.18C38.7313 188.125 37.7784 185.379 38.6258 182.164C39.031 180.604 39.715 179.154 40.399 177.704C41.3785 175.51 42.5439 173.391 43.3376 171.124C45.8854 164.173 48.3963 157.316 50.8512 150.329C52.1799 146.445 53.2859 142.58 54.5217 138.659C55.1485 136.541 54.9402 134.629 53.525 132.775C51.3092 129.957 49.2602 126.99 46.9146 124.228C41.2358 117.128 38.582 109.186 38.3397 100.05C38.0224 90.5618 39.2098 81.3488 41.6232 72.3003C42.5052 67.916 43.7947 63.048 46.3483 58.7901C47.5697 56.8006 48.791 54.8111 50.2542 53.0253C51.5875 51.2955 53.3676 50.0661 55.4085 49.2632C58.971 47.8815 62.5391 49.1924 63.9578 52.6619C64.8535 54.7397 65.3228 57.0785 65.5692 59.4363C66.1572 65.2659 65.6683 71.0978 64.9934 76.8558C64.7013 79.2148 64.4092 81.5737 64.2101 83.9696C64.0467 85.7341 64.2729 87.3306 65.9098 88.627Z" fill="#4CA96D"/>
<path fill-rule="evenodd" clip-rule="evenodd" d="M109.092 24.2068C107.612 25.3381 106.158 26.4488 105.498 28.1087C104.63 30.0232 104.893 31.5268 106.065 32.6385C107.274 33.6573 109.521 33.6896 110.968 32.7581C113.044 31.3238 114.149 26.9204 112.975 24.7317C112.322 23.3961 110.835 22.805 109.871 23.6056C109.613 23.8087 109.353 24.008 109.092 24.2068ZM123.751 40.0671C123.612 40.251 123.479 40.426 123.351 40.5866C123.273 40.9301 123.198 41.2442 123.128 41.5357L123.128 41.536L123.128 41.536C122.938 42.3326 122.788 42.9609 122.708 43.5591C122.562 45.0078 122.936 46.2326 124.219 47.0655C125.595 47.9354 126.932 47.8211 128.305 47.0754C129.807 46.2737 130.584 44.8608 130.989 43.3001C131.303 42.241 131.356 41.2938 130.259 40.5348C129.924 40.2941 129.793 39.8115 129.755 39.366C129.472 37.1011 127.743 36.3063 125.889 37.7215C125.01 38.4099 124.324 39.3138 123.751 40.067L123.751 40.0671ZM50.2034 48.0958C50.7567 46.1372 52.1442 44.9822 53.5051 43.8493C54.0937 43.3593 54.6773 42.8735 55.1863 42.3286C56.0204 41.5841 56.9866 41.8606 57.6942 42.7875C58.5698 44.1041 58.5542 45.4969 58.1859 46.9646C57.8546 48.3395 57.746 49.6953 57.9163 51.1619C58.2735 53.241 56.6447 55.7142 54.6037 56.517C52.1732 57.4878 49.6261 56.0448 49.4345 53.2783C49.4568 52.1394 49.6772 50.9834 49.8976 49.8275C50.0078 49.2496 50.118 48.6716 50.2034 48.0958ZM38.8554 116.976C39.6144 115.879 40.6142 114.447 41.7628 113.182C42.467 112.493 43.4499 111.915 44.471 111.783C45.6219 111.595 46.55 111.426 47.6259 110.885C48.7387 110.251 49.724 110.751 49.9681 112.031C50.1741 112.867 50.2134 113.851 49.9178 114.594C49.2898 116.174 48.6618 117.754 47.6061 119.056C46.6078 120.371 45.3191 121.57 44.0863 122.718C43.9243 122.869 43.7632 123.019 43.6038 123.168C42.4362 124.21 40.7837 124.307 39.5935 123.511C38.3105 122.678 37.8435 121.416 37.989 119.968C38.0954 119.307 38.2997 118.685 38.5517 117.918L38.5518 117.918L38.5518 117.918C38.6471 117.628 38.7492 117.317 38.8554 116.976ZM92.4106 136.681L92.4105 136.681L92.4102 136.68C92.332 136.457 92.2557 136.239 92.1906 136.026C93.3381 134.223 93.4847 133.312 92.5353 132.182C91.6978 131.311 90.3789 131.109 89.0433 131.762C88.9784 131.79 88.9042 131.841 88.83 131.892L88.8299 131.893C88.7558 131.944 88.6817 131.995 88.6168 132.023C85.9288 134.183 84.3749 137.009 84.4938 140.499C84.5163 142.338 85.7635 143.802 87.3242 144.207C88.9779 144.649 90.9819 143.94 91.9816 142.508C92.9443 141.168 93.2197 139.664 92.8076 137.993C92.7099 137.534 92.557 137.098 92.4106 136.681L92.4106 136.681ZM144.971 95.0238C144.804 95.2915 144.638 95.577 144.469 95.8685L144.469 95.8687C144.039 96.6098 143.586 97.3901 143.027 98.0176C141.879 99.2828 140.245 99.602 138.925 98.862C137.698 98.1589 137.082 96.7304 137.395 95.1328C137.597 94.3524 137.986 93.6459 138.374 92.9395C138.568 92.4533 138.785 91.9941 139.001 91.5379L139.001 91.5377C139.322 90.8602 139.64 90.1891 139.871 89.4452C140.369 87.9214 141.147 87.047 142.447 87.0257C143.654 86.9674 144.974 87.7074 145.404 89.062C145.703 89.9342 145.835 90.9552 145.781 91.9024C145.735 92.0705 145.686 92.2455 145.636 92.4271L145.636 92.4273C145.423 93.1885 145.179 94.0638 144.971 95.0238ZM60.0105 84.0628C62.123 81.9971 61.2227 77.7651 58.4349 76.6569C57.4496 76.1576 56.4096 76.067 55.7244 76.9783C54.3911 78.7081 53.1137 80.5678 52.1152 82.5383C51.2644 84.1371 51.8433 85.6586 53.0894 86.5844C54.3355 87.5102 55.9511 87.5068 57.3415 86.4454C58.2685 85.7377 59.1395 84.9003 60.0105 84.0628ZM125.75 120.635C124.973 122.048 124.084 123.201 122.619 123.91C119.984 125.122 117.252 123.606 116.967 120.802C116.721 118.444 117.626 116.437 119.48 115.022C120.871 113.96 122.319 114.106 123.585 115.254C123.774 115.391 123.911 115.575 124.037 115.747C124.134 115.877 124.224 116 124.329 116.088C124.494 116.227 124.72 116.366 124.95 116.505C125.394 116.777 125.848 117.054 125.873 117.348C126.057 118.214 125.943 119.105 125.825 120.022C125.799 120.225 125.773 120.429 125.75 120.635ZM65.2916 119.409C65.4079 119.49 65.5298 119.576 65.657 119.667C65.8017 119.647 65.9557 119.63 66.1146 119.612C66.8324 119.534 67.6533 119.444 68.1995 118.956C69.1265 118.249 70.0713 117.225 70.7005 116.184C70.9041 115.87 71.0252 115.51 71.149 115.141C71.3629 114.503 71.5849 113.842 72.2543 113.358C72.551 113.153 72.6416 112.113 72.4367 111.816C71.6362 110.852 70.7427 109.852 69.6825 109C69.3477 108.759 68.5864 108.779 68.2897 108.984C68.0657 109.128 67.8395 109.272 67.6125 109.416L67.6123 109.416L67.6121 109.416L67.6119 109.416L67.6118 109.416C66.3731 110.201 65.1114 111.001 64.0623 112.038C62.9876 113.118 63.0706 117.24 64.113 118.408C64.3996 118.783 64.7955 119.061 65.2914 119.409L65.2914 119.409L65.2915 119.409L65.2916 119.409ZM85.2426 90.9727C84.6337 92.7753 83.2801 93.7438 81.6657 94.2857C79.1053 95.3125 76.762 93.6276 76.6633 90.8981C76.6028 88.6142 78.6391 85.6573 80.773 84.8914C83.0367 84.0695 85.7148 85.9951 85.6646 88.5578C85.6478 89.412 85.4452 90.1924 85.2426 90.9727ZM112.913 65.4921C112.359 66.886 111.34 68.0952 109.818 68.6741C108.037 69.3649 105.919 68.7381 104.968 67.0688C103.981 65.4925 104.33 63.802 105.868 62.3688C106.572 61.6803 107.184 60.9547 107.795 60.2292C108.814 59.02 110.224 58.7199 111.563 59.6827C113.144 60.8492 113.799 63.2619 112.913 65.4921ZM120.802 98.9748C118.813 98.292 117.992 96.0282 119.325 94.2984C120.417 92.9034 121.882 91.6561 123.421 90.7615C125.22 89.7549 126.522 90.8106 127.122 93.0934C127.553 94.9865 126.59 96.3256 125.348 97.5538C123.903 99.0239 122.289 99.5659 120.802 98.9748ZM94.4523 116.802C93.1513 116.285 91.7049 117.216 91.003 118.982C90.0604 121.082 90.6774 123.049 92.443 123.751C93.9667 124.249 96.0446 123.354 96.8025 121.718C97.5413 119.859 96.4407 117.485 94.4523 116.802Z" fill="black"/>
</svg>
