<svg width="50" height="50" viewBox="0 0 50 50" fill="none" xmlns="http://www.w3.org/2000/svg">
<mask id="mask0_449_2" style="mask-type:luminance" maskUnits="userSpaceOnUse" x="0" y="3" width="50" height="44">
<path d="M50 3.02002H0.181641V46.9077H50V3.02002Z" fill="white"/>
</mask>
<g mask="url(#mask0_449_2)">
<path d="M2.83163 40.3979C2.76012 40.3627 2.68468 40.3362 2.60709 40.3187C0.748787 40.2 -0.0983529 39.2024 0.277262 37.372C0.497769 36.3169 0.846827 35.2928 1.31669 34.3226C1.61086 33.7133 2.21678 33.2552 2.66713 32.7459C2.51807 32.0935 2.22618 31.3923 2.23527 30.6945C2.24397 30.0191 2.56231 29.3478 2.75941 28.6205C1.29294 27.2513 1.25217 26.9583 2.29163 24.5836C1.71635 23.9883 1.65301 23.2678 1.74296 22.4485C1.99126 20.1907 2.28762 17.9452 3.15073 15.8268C5.34513 10.4418 9.23591 6.7466 14.6742 4.82166C21.2782 2.48435 27.9451 2.44934 34.519 5.01795C37.5564 6.2041 40.2377 7.97287 42.1522 10.6864C42.9103 11.7208 43.5465 12.8391 44.0483 14.0193C44.7133 15.6742 45.1871 17.4089 45.6856 19.1262C46.0326 20.3209 46.1404 21.5304 45.2706 22.6527C46.0829 23.3093 46.7895 23.9636 47.1305 24.9232C47.4835 25.9161 47.2169 26.7802 46.6489 27.6417C47.688 28.7029 47.8371 29.9464 47.3718 31.3528C48.2516 32.0267 49.0564 32.8005 49.4193 33.8955C49.6293 34.463 49.7645 35.0555 49.8221 35.6579C49.9323 37.5988 49.1715 38.4603 47.2868 38.6814C47.2413 39.5521 47.2329 40.4199 47.144 41.2789C46.9633 43.0283 45.9492 44.1636 44.2925 44.5765C42.716 44.9524 41.1172 45.2296 39.5061 45.407C36.4853 45.7702 33.4597 46.1088 30.4275 46.3494C25.4324 46.7446 20.4269 46.9238 15.4239 46.4922C12.6297 46.2512 9.84061 45.9443 7.05612 45.6091C6.25438 45.4904 5.46787 45.285 4.71064 44.9961C4.25564 44.8467 3.85486 44.5666 3.55887 44.1901C3.2629 43.8136 3.08492 43.3582 3.04727 42.8808C2.94289 42.0509 2.89983 41.2124 2.83163 40.3979ZM43.8702 21.6708C43.4401 19.8649 43.0904 18.1497 42.6148 16.4703C42.1531 14.7351 41.3606 13.1055 40.2805 11.6709C38.394 9.22684 35.879 7.705 33.0552 6.64419C28.7754 5.03675 24.3487 4.74634 19.872 5.4867C13.6369 6.51669 8.65495 9.43877 5.61149 15.2064C4.39468 17.5121 3.82706 19.9838 3.38146 22.5839C3.70775 22.7196 4.04519 22.8271 4.3898 22.9054C5.52495 23.0564 6.66697 23.2943 7.8029 23.2757C12.2636 23.2021 16.7227 23.0319 21.1831 22.9198C24.7996 22.8289 28.4168 22.7719 32.0338 22.695C35.3455 22.6248 38.6588 22.5626 41.9404 22.041C42.5645 21.9416 43.1826 21.8038 43.8702 21.6708ZM40.8025 37.3997C40.251 37.8259 39.7299 38.1904 39.2519 38.6064C38.3832 39.3606 37.4588 39.4895 36.4474 38.9407C36.0537 38.7467 35.6733 38.5268 35.3088 38.2826C34.382 37.6073 33.4826 37.544 32.5058 38.2061C31.8531 38.6271 31.1742 39.007 30.4736 39.3422C29.9049 39.6482 29.2701 39.8106 28.6242 39.8145C27.9785 39.8184 27.3416 39.6642 26.7693 39.3651C26.2553 39.1115 25.7482 38.8395 25.2595 38.5404C24.9792 38.3476 24.6512 38.2365 24.3115 38.2193C23.9719 38.2015 23.634 38.2786 23.3353 38.4416C22.7375 38.7524 22.1399 39.0696 21.5717 39.4302C21.1522 39.7205 20.6635 39.8952 20.1549 39.9371C19.6463 39.9786 19.1356 39.8856 18.6744 39.6672C18.0856 39.4139 17.5262 39.0967 17.0062 38.722C16.1407 38.0765 15.2663 38.0365 14.3522 38.5283C13.8184 38.8157 13.312 39.1558 12.7998 39.4823C11.4818 40.3229 10.1859 40.2564 8.91278 39.3904C8.60576 39.1817 8.31591 38.947 8.02432 38.7163C7.26359 38.1145 6.47281 38.1076 5.67787 38.6223C5.32046 38.8539 4.99944 39.1413 4.71299 39.3636C4.83161 40.1196 4.91646 40.7558 5.03112 41.3862C5.28239 42.7684 5.36911 42.8512 6.72311 43.1371C6.82194 43.1582 6.92444 43.1633 7.02429 43.1808C11.2251 43.8901 15.4731 44.2853 19.7327 44.3624C26.5806 44.5308 33.3648 43.7208 40.1428 42.8808C41.179 42.7524 42.2079 42.5458 43.2302 42.3286C43.973 42.1705 44.379 41.6603 44.4519 40.9015C44.5112 40.2777 44.5612 39.653 44.6203 38.9681C43.0742 39.1383 41.9142 38.5238 40.8025 37.3997ZM2.21441 38.4079C2.67543 38.1741 3.03591 38.0148 3.37218 37.8148C3.71971 37.6073 4.0342 37.3449 4.37938 37.1329C6.04712 36.1085 7.53965 36.2015 9.05932 37.4142C9.27019 37.5829 9.47974 37.7536 9.68811 37.9265C10.3709 38.4919 11.0779 38.5392 11.8309 38.0573C12.3623 37.6982 12.9128 37.3681 13.4799 37.0687C14.9935 36.3175 16.4652 36.3256 17.8587 37.3949C18.2126 37.6539 18.5862 37.885 18.9762 38.0856C19.2527 38.2524 19.5728 38.3326 19.8953 38.3154C20.2178 38.2985 20.5277 38.185 20.7851 37.9898C21.3408 37.6067 21.9282 37.2714 22.5408 36.9877C23.7535 36.4392 24.959 36.4341 26.109 37.2036C26.417 37.41 26.7503 37.578 27.068 37.7702C27.4922 38.0543 27.9894 38.2097 28.4999 38.2175C29.0103 38.2256 29.5122 38.0862 29.9452 37.8157C30.5889 37.4449 31.2425 37.0895 31.8709 36.694C33.2151 35.8488 34.5245 35.8916 35.8745 36.7052C37.5323 37.7046 37.5459 37.6823 39.0796 36.5356C40.3645 35.5744 41.3305 35.5428 42.71 36.4268C43.0952 36.6735 43.4681 36.9407 43.8766 37.2187C44.4103 36.5533 44.5597 35.4642 45.5236 35.5314C46.2748 35.5838 46.9995 36.0335 47.7573 36.3145C48.5157 35.1732 47.851 33.2428 46.469 32.5079C45.3449 32.844 44.3317 33.2374 43.282 33.4464C39.3612 34.2283 35.3684 34.363 31.3974 34.6961C29.4569 34.8591 27.511 34.6205 25.5724 34.8558C25.2049 34.9 24.8056 34.6684 24.4191 34.5711C24.0411 34.4756 23.6607 34.3094 23.2818 34.31C19.2593 34.3175 15.2357 34.4076 11.2146 34.3549C9.297 34.3299 7.382 34.0359 5.46377 33.8919C5.09859 33.8618 4.73121 33.9097 4.38573 34.0317C2.97205 34.5645 2.0782 36.303 2.21441 38.4085V38.4079ZM15.7918 24.9727C15.8032 25.0407 15.8144 25.1087 15.8254 25.1767C18.5431 27.2851 21.2467 29.4118 23.984 31.4941C25.3977 32.5696 25.197 32.9515 26.738 31.3036C28.537 29.3808 30.2513 27.3798 31.9983 25.409C32.1465 25.2417 32.263 25.0462 32.5308 24.6746L15.7918 24.9727ZM21.4766 32.2898C20.4362 31.4156 19.5746 30.7152 18.7424 29.9816C18.359 29.6435 17.9696 29.5712 17.4574 29.5795C13.7091 29.6388 9.95959 30.0178 6.21016 29.5587C5.75287 29.5028 5.27335 29.6133 4.80643 29.6597C4.35311 29.7046 4.18549 30.0132 4.14694 30.4226C4.09456 30.9789 4.32399 31.3727 4.9576 31.5364C5.73555 31.7642 6.53588 31.9073 7.34456 31.9634C11.7023 32.119 16.0627 32.2234 20.421 32.341C20.6821 32.3489 20.9453 32.3179 21.4766 32.2906V32.2898ZM45.4639 28.557C44.2082 28.8786 43.0489 29.2895 41.8558 29.4595C38.4151 29.965 34.9413 30.2117 31.4636 30.1975C31.2395 30.1763 31.0151 30.2348 30.8299 30.3625C30.1811 31.0293 29.5737 31.7361 28.8709 32.5188C29.8863 32.5188 30.7242 32.5715 31.5537 32.5093C34.5835 32.2825 37.6157 32.0694 40.6359 31.7438C42.0772 31.5861 43.5007 31.2958 44.8886 30.8769C46.141 30.5009 46.3031 29.5808 45.4639 28.5578V28.557ZM32.8618 27.9232C33.3209 27.9232 33.5904 27.938 33.8576 27.9208C36.0811 27.7787 38.3139 27.7141 40.5236 27.4539C41.9233 27.256 43.3022 26.93 44.6425 26.4801C45.5016 26.2126 45.6702 25.718 45.4302 25.0031C45.1504 24.1708 44.5477 23.7406 43.8091 23.8796C41.4196 24.3305 38.9952 24.5696 36.5636 24.5941C36.0965 24.5986 35.6299 24.6389 35.3275 24.6534L32.8618 27.9232ZM4.2145 24.6174C3.97426 25.0474 3.75829 25.4904 3.56775 25.9447C3.34161 26.5813 3.42477 26.7912 4.08844 27.0148C4.75893 27.2418 5.44989 27.4035 6.15146 27.4978C9.01284 27.8734 11.8864 27.7089 14.7568 27.6257C15.0163 27.5943 15.2734 27.5452 15.5262 27.4788C15.0632 27.1277 14.7518 26.8768 14.4252 26.6475C13.9278 26.2982 13.325 26.0453 12.9425 25.5997C12.5471 25.1397 12.1359 25.0921 11.6179 25.0915C9.18829 25.0893 6.74971 25.2488 4.2145 24.6174Z" fill="#002F3C"/>
<path d="M20.7964 10.0404C20.8417 9.64757 20.773 9.23637 21.2416 9.08691C21.7 8.94062 22.047 9.16715 22.2362 9.56908C22.4414 9.99086 22.6025 10.4329 22.7164 10.8879C22.8128 11.2987 22.7316 11.7115 22.2694 11.8993C21.8613 12.065 21.4193 11.8751 21.204 11.3811C21.0409 10.943 20.9049 10.4952 20.7964 10.0404Z" fill="#002F3C"/>
<path d="M13.4416 15.4932C13.5917 15.5979 13.9578 15.7201 14.0166 15.9281C14.0522 16.0809 14.054 16.2396 14.0221 16.3932C13.9903 16.5469 13.9253 16.6917 13.8318 16.8177C13.3294 17.358 12.6152 17.5294 11.9022 17.5561C11.3866 17.5758 11.1573 16.985 11.5068 16.5034C11.9399 15.908 12.5619 15.5859 13.4416 15.4932Z" fill="#002F3C"/>
<path d="M37.8373 20.0591C37.5102 19.8157 37.1466 19.677 37.0545 19.435C36.981 19.2421 37.1674 18.8267 37.365 18.6806C37.7647 18.3753 38.218 18.1484 38.702 18.012C38.9557 17.947 39.4325 18.1109 39.5451 18.3166C39.5903 18.4666 39.5966 18.6255 39.5632 18.7785C39.5301 18.9316 39.4584 19.0736 39.3551 19.1912C38.9319 19.541 38.3951 19.7535 37.8373 20.0591Z" fill="#002F3C"/>
<path d="M26.8473 16.9068C26.8193 16.2489 27.3131 15.9198 27.854 16.1673C28.3472 16.3928 28.9144 17.4974 28.8203 18.0485C28.7359 18.5428 28.2521 18.8011 27.8477 18.5172C27.32 18.1286 26.9618 17.5521 26.8473 16.9068Z" fill="#002F3C"/>
<path d="M36.379 12.4667C36.3751 13.0558 35.5684 13.8662 34.9856 13.8646C34.6181 13.8636 34.2711 13.456 34.4534 13.0845C34.6757 12.609 35.0064 12.1923 35.4193 11.8679C35.8591 11.548 36.3829 11.9262 36.379 12.4667Z" fill="#002F3C"/>
<path d="M18.6216 21.2672C17.9999 21.2318 17.2722 20.4951 17.2843 19.9851C17.2906 19.8842 17.3173 19.7855 17.3625 19.6951C17.4078 19.6047 17.4708 19.5244 17.5479 19.4589C17.6249 19.3934 17.7146 19.3442 17.8112 19.3141C17.9078 19.2841 18.0094 19.2739 18.1101 19.2841C18.5999 19.347 19.1609 20.0768 19.1451 20.6341C19.134 21.0208 19.0016 21.2962 18.6216 21.2672Z" fill="#002F3C"/>
</g>
</svg>
